<svg width="33" height="33" viewBox="0 0 33 33" fill="none" xmlns="http://www.w3.org/2000/svg">
<g clip-path="url(#clip0_85_202)">
<path d="M27.5428 17.869C27.4636 17.8291 27.3842 17.8091 27.3042 17.8091C27.132 17.8091 26.9803 17.8752 26.8481 18.0077L25.578 19.2776C25.4593 19.3968 25.3996 19.5421 25.3996 19.7143V24.7541C25.3996 25.6274 25.0895 26.3745 24.4673 26.9965C23.8456 27.6182 23.098 27.9291 22.2248 27.9291H5.71495C4.84171 27.9291 4.09421 27.6182 3.47251 26.9965C2.85066 26.3746 2.53992 25.6275 2.53992 24.7541V8.24462C2.53992 7.37153 2.85066 6.62409 3.47251 6.00218C4.09421 5.38041 4.84171 5.06959 5.71495 5.06959H22.225C22.516 5.06959 22.8137 5.10928 23.1179 5.18872C23.1973 5.21499 23.2568 5.22841 23.296 5.22841C23.4682 5.22841 23.6204 5.16245 23.7526 5.03018L24.725 4.05784C24.8836 3.8993 24.9434 3.70734 24.9033 3.48263C24.8636 3.27093 24.7444 3.11872 24.546 3.02621C23.8321 2.69593 23.0578 2.53003 22.2244 2.53003H5.71495C4.14071 2.53003 2.79457 3.08897 1.67669 4.20685C0.558943 5.32488 0 6.6708 0 8.24511V24.755C0 26.329 0.558943 27.6751 1.67676 28.793C2.79464 29.9111 4.14078 30.4701 5.71502 30.4701H22.2248C23.7989 30.4701 25.1451 29.9111 26.263 28.793C27.381 27.6751 27.9404 26.3291 27.9404 24.755V18.4444C27.9403 18.1668 27.8073 17.9751 27.5428 17.869Z" fill="#46CC46"/>
<path d="M32.5238 6.47876L30.3408 4.29574C30.0233 3.97832 29.646 3.81958 29.2094 3.81958C28.7732 3.81958 28.3957 3.97832 28.0785 4.29574L15.2395 17.1347L10.0209 11.9158C9.70335 11.5981 9.32622 11.4396 8.88981 11.4396C8.45334 11.4396 8.07635 11.5981 7.75872 11.9158L5.57598 14.0985C5.25849 14.416 5.09961 14.7931 5.09961 15.2298C5.09961 15.6663 5.25849 16.0432 5.57598 16.3609L14.1087 24.8935C14.4262 25.2112 14.8033 25.3697 15.2397 25.3697C15.6762 25.3697 16.0532 25.2113 16.3708 24.8935L32.5236 8.74087C32.8409 8.42345 33 8.04625 33 7.60978C33 7.1733 32.8413 6.79618 32.5238 6.47876Z" fill="#46CC46"/>
</g>
<defs>
<clipPath id="clip0_85_202">
<rect width="33" height="33" fill="white"/>
</clipPath>
</defs>
</svg>
