<svg width="22" height="29" viewBox="0 0 22 29" fill="none" xmlns="http://www.w3.org/2000/svg">
<path fill-rule="evenodd" clip-rule="evenodd" d="M3.05302 27.0317C3.05302 27.0317 3.49987 29 5.79997 29H16.2C18.5 29 18.9469 27.0317 18.9469 27.0317L21 7.73338H0.999979L3.05302 27.0317ZM15 10.6334C15 10.0995 15.4477 9.66677 16 9.66677C16.5524 9.66677 17.0001 10.0995 17.0001 10.6334L16 25.1334C16 25.6673 15.5523 26.1001 15 26.1001C14.4478 26.1001 14.0001 25.6672 14.0001 25.1334L15 10.6334ZM10 10.6334C10 10.0995 10.4478 9.66677 11 9.66677C11.5523 9.66677 12 10.0995 12 10.6334V25.1334C12 25.6673 11.5523 26.1001 11 26.1001C10.4477 26.1001 10 25.6672 10 25.1334V10.6334ZM5.99999 9.66667C6.55233 9.66667 6.99997 10.0994 6.99997 10.6333L8.00006 25.1333C8.00006 25.6672 7.55231 26.1 6.99997 26.1C6.44774 26.1 5.99999 25.6671 5.99999 25.1333L5.00001 10.6334C5.00001 10.0995 5.44776 9.66667 5.99999 9.66667ZM20.4 3.8682H16V1.9334C16 0.46685 15.5094 0 14.0001 0H7.99995C6.61558 0 5.99999 0.648211 5.99999 1.9334V3.86831H1.60003C0.715708 3.86831 0 4.51717 0 5.31898C0 6.1209 0.715708 6.76976 1.60003 6.76976H20.4C21.2843 6.76976 22 6.1209 22 5.31898C22 4.51717 21.2843 3.8682 20.4 3.8682ZM14.0001 3.8682H8.00006L8.00017 1.93329H14.0002V3.8682H14.0001Z" fill="#FF5757"/>
</svg>
