<svg width="35" height="32" viewBox="0 0 35 32" fill="none" xmlns="http://www.w3.org/2000/svg">
<path d="M11.6652 23.0715C9.35801 23.0715 7.10267 22.3949 5.18435 21.1273C3.26602 19.8598 1.77087 18.0581 0.887963 15.9503C0.00505433 13.8424 -0.225955 11.5229 0.224148 9.28522C0.674251 7.04751 1.78525 4.99204 3.41665 3.37874C5.04805 1.76544 7.12659 0.66677 9.38941 0.221661C11.6522 -0.223448 13.9977 0.00499825 16.1292 0.87811C18.2608 1.75122 20.0826 3.22979 21.3644 5.12683C22.6462 7.02387 23.3303 9.25418 23.3303 11.5357C23.3303 14.5952 22.1013 17.5294 19.9137 19.6927C17.726 21.8561 14.759 23.0715 11.6652 23.0715ZM11.6652 2.30715C9.81944 2.30715 8.01517 2.8484 6.48051 3.86245C4.94585 4.8765 3.74973 6.3178 3.0434 8.00411C2.33708 9.69041 2.15227 11.546 2.51235 13.3361C2.87243 15.1263 3.76123 16.7707 5.06635 18.0613C6.37148 19.352 8.0343 20.2309 9.84456 20.587C11.6548 20.9431 13.5312 20.7603 15.2364 20.0618C16.9416 19.3633 18.3991 18.1805 19.4245 16.6629C20.45 15.1452 20.9973 13.361 20.9973 11.5357C20.9973 9.08816 20.0141 6.74083 18.264 5.01014C16.5139 3.27944 14.1402 2.30715 11.6652 2.30715V2.30715Z" fill="#1D1E22"/>
<path d="M31.496 31.9999C30.6729 32.001 29.8757 31.715 29.2446 31.1924L22.0939 25.263C21.7415 24.9707 21.4509 24.6125 21.2385 24.2091C21.0261 23.8056 20.8962 23.3648 20.8561 22.9116C20.7752 21.9965 21.0651 21.0871 21.6622 20.3834C22.2593 19.6798 23.1147 19.2395 24.04 19.1594C24.9654 19.0794 25.885 19.3661 26.5966 19.9566L33.7474 25.886C34.2985 26.3424 34.6941 26.9556 34.8804 27.6421C35.0668 28.3287 35.0348 29.0554 34.7888 29.7234C34.5429 30.3913 34.0948 30.9682 33.5057 31.3755C32.9165 31.7828 32.2148 32.0008 31.496 31.9999V31.9999ZM24.3452 21.4563H24.2402C24.0088 21.4755 23.7885 21.5626 23.6075 21.7064C23.4264 21.8502 23.2929 22.0442 23.224 22.2635C23.1551 22.4828 23.1539 22.7174 23.2207 22.9374C23.2874 23.1573 23.419 23.3525 23.5987 23.4981L30.7494 29.4274C30.8666 29.5252 31.0021 29.5993 31.1482 29.6452C31.2943 29.6912 31.4481 29.7083 31.6008 29.6954C31.7536 29.6825 31.9023 29.64 32.0384 29.5703C32.1746 29.5006 32.2955 29.405 32.3942 29.289C32.4927 29.1729 32.567 29.0388 32.6131 28.8944C32.6591 28.7499 32.6759 28.5978 32.6625 28.4469C32.6484 28.2952 32.604 28.1478 32.5319 28.0132C32.4598 27.8785 32.3615 27.7593 32.2426 27.6625L25.0918 21.7216C24.8819 21.5496 24.6178 21.4557 24.3452 21.4563Z" fill="#1D1E22"/>
<path d="M22.1636 21.9179C21.891 21.9184 21.6269 21.8246 21.417 21.6526L18.6641 19.4031C18.4259 19.2073 18.2761 18.926 18.2476 18.6209C18.2192 18.3159 18.3144 18.0122 18.5124 17.7766C18.7104 17.541 18.995 17.3929 19.3034 17.3647C19.6119 17.3366 19.919 17.4308 20.1572 17.6266L22.8868 19.8761C23.005 19.9729 23.1026 20.0919 23.1742 20.2261C23.2457 20.3603 23.2898 20.5072 23.3039 20.6583C23.318 20.8093 23.3018 20.9617 23.2563 21.1066C23.2107 21.2515 23.1367 21.3861 23.0385 21.5026C22.9313 21.6299 22.7978 21.7329 22.6468 21.8045C22.4958 21.8762 22.331 21.9149 22.1636 21.9179Z" fill="#1D1E22"/>
</svg>
